<mxfile host="Electron" modified="2024-05-09T09:00:01.326Z" agent="Mozilla/5.0 (Macintosh; Intel Mac OS X 10_15_7) AppleWebKit/537.36 (KHTML, like Gecko) draw.io/24.2.5 Chrome/120.0.6099.109 Electron/28.1.0 Safari/537.36" etag="j-ypIqVq4T-MeKG9VJnO" version="24.2.5" type="device">
  <diagram name="Page-1" id="iAEbi8x5lQR15gQI3bB3">
    <mxGraphModel dx="928" dy="833" grid="1" gridSize="10" guides="1" tooltips="1" connect="1" arrows="1" fold="1" page="1" pageScale="1" pageWidth="827" pageHeight="1169" math="0" shadow="0">
      <root>
        <mxCell id="0" />
        <mxCell id="1" parent="0" />
        <mxCell id="qSneyJeQMX9DcK4N0HPA-43" value="" style="rounded=0;whiteSpace=wrap;html=1;strokeColor=none;" vertex="1" parent="1">
          <mxGeometry x="36" y="288" width="840" height="190" as="geometry" />
        </mxCell>
        <mxCell id="qSneyJeQMX9DcK4N0HPA-14" value="" style="endArrow=none;dashed=1;html=1;strokeWidth=2;rounded=0;strokeColor=#919191;" edge="1" parent="1">
          <mxGeometry width="50" height="50" relative="1" as="geometry">
            <mxPoint x="140" y="440" as="sourcePoint" />
            <mxPoint x="140" y="320" as="targetPoint" />
          </mxGeometry>
        </mxCell>
        <mxCell id="qSneyJeQMX9DcK4N0HPA-15" value="" style="endArrow=none;dashed=1;html=1;strokeWidth=2;rounded=0;strokeColor=#919191;" edge="1" parent="1">
          <mxGeometry width="50" height="50" relative="1" as="geometry">
            <mxPoint x="190" y="440" as="sourcePoint" />
            <mxPoint x="190" y="320" as="targetPoint" />
          </mxGeometry>
        </mxCell>
        <mxCell id="qSneyJeQMX9DcK4N0HPA-17" value="" style="endArrow=none;dashed=1;html=1;strokeWidth=2;rounded=0;strokeColor=#919191;" edge="1" parent="1">
          <mxGeometry width="50" height="50" relative="1" as="geometry">
            <mxPoint x="260" y="440" as="sourcePoint" />
            <mxPoint x="259.56" y="340" as="targetPoint" />
          </mxGeometry>
        </mxCell>
        <mxCell id="qSneyJeQMX9DcK4N0HPA-18" value="" style="endArrow=none;dashed=1;html=1;strokeWidth=2;rounded=0;strokeColor=#919191;" edge="1" parent="1">
          <mxGeometry width="50" height="50" relative="1" as="geometry">
            <mxPoint x="330" y="440" as="sourcePoint" />
            <mxPoint x="330" y="340" as="targetPoint" />
          </mxGeometry>
        </mxCell>
        <mxCell id="qSneyJeQMX9DcK4N0HPA-19" value="" style="endArrow=none;dashed=1;html=1;strokeWidth=2;rounded=0;strokeColor=#919191;" edge="1" parent="1">
          <mxGeometry width="50" height="50" relative="1" as="geometry">
            <mxPoint x="400" y="440" as="sourcePoint" />
            <mxPoint x="399.56" y="340" as="targetPoint" />
          </mxGeometry>
        </mxCell>
        <mxCell id="qSneyJeQMX9DcK4N0HPA-20" value="" style="endArrow=none;dashed=1;html=1;strokeWidth=2;rounded=0;strokeColor=#919191;" edge="1" parent="1">
          <mxGeometry width="50" height="50" relative="1" as="geometry">
            <mxPoint x="470" y="440" as="sourcePoint" />
            <mxPoint x="470" y="340" as="targetPoint" />
          </mxGeometry>
        </mxCell>
        <mxCell id="qSneyJeQMX9DcK4N0HPA-21" value="" style="endArrow=none;dashed=1;html=1;strokeWidth=2;rounded=0;strokeColor=#919191;" edge="1" parent="1">
          <mxGeometry width="50" height="50" relative="1" as="geometry">
            <mxPoint x="540" y="440" as="sourcePoint" />
            <mxPoint x="539.56" y="340" as="targetPoint" />
          </mxGeometry>
        </mxCell>
        <mxCell id="qSneyJeQMX9DcK4N0HPA-22" value="" style="endArrow=none;dashed=1;html=1;strokeWidth=2;rounded=0;strokeColor=#919191;" edge="1" parent="1">
          <mxGeometry width="50" height="50" relative="1" as="geometry">
            <mxPoint x="610" y="440" as="sourcePoint" />
            <mxPoint x="610" y="340" as="targetPoint" />
          </mxGeometry>
        </mxCell>
        <mxCell id="qSneyJeQMX9DcK4N0HPA-23" value="" style="endArrow=none;dashed=1;html=1;strokeWidth=2;rounded=0;strokeColor=#919191;" edge="1" parent="1">
          <mxGeometry width="50" height="50" relative="1" as="geometry">
            <mxPoint x="680" y="440" as="sourcePoint" />
            <mxPoint x="679.56" y="340" as="targetPoint" />
          </mxGeometry>
        </mxCell>
        <mxCell id="qSneyJeQMX9DcK4N0HPA-1" value="" style="shape=hexagon;perimeter=hexagonPerimeter2;whiteSpace=wrap;html=1;fixedSize=1;strokeWidth=3;" vertex="1" parent="1">
          <mxGeometry x="190" y="360" width="70" height="40" as="geometry" />
        </mxCell>
        <mxCell id="qSneyJeQMX9DcK4N0HPA-2" value="" style="shape=hexagon;perimeter=hexagonPerimeter2;whiteSpace=wrap;html=1;fixedSize=1;strokeWidth=3;" vertex="1" parent="1">
          <mxGeometry x="260" y="360" width="70" height="40" as="geometry" />
        </mxCell>
        <mxCell id="qSneyJeQMX9DcK4N0HPA-3" value="" style="shape=hexagon;perimeter=hexagonPerimeter2;whiteSpace=wrap;html=1;fixedSize=1;strokeWidth=3;" vertex="1" parent="1">
          <mxGeometry x="330" y="360" width="70" height="40" as="geometry" />
        </mxCell>
        <mxCell id="qSneyJeQMX9DcK4N0HPA-4" value="" style="shape=hexagon;perimeter=hexagonPerimeter2;whiteSpace=wrap;html=1;fixedSize=1;strokeWidth=3;" vertex="1" parent="1">
          <mxGeometry x="400" y="360" width="70" height="40" as="geometry" />
        </mxCell>
        <mxCell id="qSneyJeQMX9DcK4N0HPA-5" value="" style="shape=hexagon;perimeter=hexagonPerimeter2;whiteSpace=wrap;html=1;fixedSize=1;strokeWidth=3;" vertex="1" parent="1">
          <mxGeometry x="470" y="360" width="70" height="40" as="geometry" />
        </mxCell>
        <mxCell id="qSneyJeQMX9DcK4N0HPA-6" value="" style="shape=hexagon;perimeter=hexagonPerimeter2;whiteSpace=wrap;html=1;fixedSize=1;strokeWidth=3;" vertex="1" parent="1">
          <mxGeometry x="540" y="360" width="70" height="40" as="geometry" />
        </mxCell>
        <mxCell id="qSneyJeQMX9DcK4N0HPA-7" value="" style="shape=hexagon;perimeter=hexagonPerimeter2;whiteSpace=wrap;html=1;fixedSize=1;strokeWidth=3;" vertex="1" parent="1">
          <mxGeometry x="610" y="360" width="70" height="40" as="geometry" />
        </mxCell>
        <mxCell id="qSneyJeQMX9DcK4N0HPA-10" value="" style="endArrow=none;html=1;rounded=0;edgeStyle=orthogonalEdgeStyle;entryX=0;entryY=0.5;entryDx=0;entryDy=0;strokeWidth=3;" edge="1" parent="1" target="qSneyJeQMX9DcK4N0HPA-1">
          <mxGeometry width="50" height="50" relative="1" as="geometry">
            <mxPoint x="90" y="360" as="sourcePoint" />
            <mxPoint x="190" y="400" as="targetPoint" />
            <Array as="points">
              <mxPoint x="140" y="360" />
              <mxPoint x="140" y="400" />
              <mxPoint x="190" y="400" />
            </Array>
          </mxGeometry>
        </mxCell>
        <mxCell id="qSneyJeQMX9DcK4N0HPA-13" value="rx/tx" style="edgeLabel;html=1;align=center;verticalAlign=middle;resizable=0;points=[];fontSize=18;" vertex="1" connectable="0" parent="qSneyJeQMX9DcK4N0HPA-10">
          <mxGeometry x="-0.7481" y="-1" relative="1" as="geometry">
            <mxPoint x="-43" y="-3" as="offset" />
          </mxGeometry>
        </mxCell>
        <mxCell id="qSneyJeQMX9DcK4N0HPA-25" value="start" style="edgeLabel;html=1;align=center;verticalAlign=middle;resizable=0;points=[];fontSize=18;" vertex="1" connectable="0" parent="1">
          <mxGeometry x="164" y="427.9999999999999" as="geometry" />
        </mxCell>
        <mxCell id="qSneyJeQMX9DcK4N0HPA-26" value="d[0]" style="edgeLabel;html=1;align=center;verticalAlign=middle;resizable=0;points=[];fontSize=18;" vertex="1" connectable="0" parent="1">
          <mxGeometry x="229" y="430.9999999999999" as="geometry">
            <mxPoint x="-4" y="-3" as="offset" />
          </mxGeometry>
        </mxCell>
        <mxCell id="qSneyJeQMX9DcK4N0HPA-27" value="d[1]" style="edgeLabel;html=1;align=center;verticalAlign=middle;resizable=0;points=[];fontSize=18;" vertex="1" connectable="0" parent="1">
          <mxGeometry x="299" y="430.9999999999999" as="geometry">
            <mxPoint x="-4" y="-3" as="offset" />
          </mxGeometry>
        </mxCell>
        <mxCell id="qSneyJeQMX9DcK4N0HPA-28" value="d[2]" style="edgeLabel;html=1;align=center;verticalAlign=middle;resizable=0;points=[];fontSize=18;" vertex="1" connectable="0" parent="1">
          <mxGeometry x="369" y="430.9999999999999" as="geometry">
            <mxPoint x="-4" y="-3" as="offset" />
          </mxGeometry>
        </mxCell>
        <mxCell id="qSneyJeQMX9DcK4N0HPA-29" value="d[3]" style="edgeLabel;html=1;align=center;verticalAlign=middle;resizable=0;points=[];fontSize=18;" vertex="1" connectable="0" parent="1">
          <mxGeometry x="438" y="430.9999999999999" as="geometry">
            <mxPoint x="-4" y="-3" as="offset" />
          </mxGeometry>
        </mxCell>
        <mxCell id="qSneyJeQMX9DcK4N0HPA-30" value="d[4]" style="edgeLabel;html=1;align=center;verticalAlign=middle;resizable=0;points=[];fontSize=18;" vertex="1" connectable="0" parent="1">
          <mxGeometry x="508" y="430.9999999999999" as="geometry">
            <mxPoint x="-4" y="-3" as="offset" />
          </mxGeometry>
        </mxCell>
        <mxCell id="qSneyJeQMX9DcK4N0HPA-31" value="d[5]" style="edgeLabel;html=1;align=center;verticalAlign=middle;resizable=0;points=[];fontSize=18;" vertex="1" connectable="0" parent="1">
          <mxGeometry x="578" y="430.9999999999999" as="geometry">
            <mxPoint x="-4" y="-3" as="offset" />
          </mxGeometry>
        </mxCell>
        <mxCell id="qSneyJeQMX9DcK4N0HPA-32" value="d[6]" style="edgeLabel;html=1;align=center;verticalAlign=middle;resizable=0;points=[];fontSize=18;" vertex="1" connectable="0" parent="1">
          <mxGeometry x="648" y="430.9999999999999" as="geometry">
            <mxPoint x="-4" y="-3" as="offset" />
          </mxGeometry>
        </mxCell>
        <mxCell id="qSneyJeQMX9DcK4N0HPA-35" value="" style="endArrow=block;startArrow=block;html=1;rounded=0;startFill=1;endFill=1;" edge="1" parent="1">
          <mxGeometry width="50" height="50" relative="1" as="geometry">
            <mxPoint x="140" y="330" as="sourcePoint" />
            <mxPoint x="190" y="330" as="targetPoint" />
          </mxGeometry>
        </mxCell>
        <mxCell id="qSneyJeQMX9DcK4N0HPA-36" value="T&lt;sub style=&quot;font-size: 13px;&quot;&gt;br&lt;/sub&gt;" style="edgeLabel;html=1;align=center;verticalAlign=middle;resizable=0;points=[];fontSize=13;" vertex="1" connectable="0" parent="qSneyJeQMX9DcK4N0HPA-35">
          <mxGeometry x="-0.0188" y="-1" relative="1" as="geometry">
            <mxPoint y="-15" as="offset" />
          </mxGeometry>
        </mxCell>
        <mxCell id="qSneyJeQMX9DcK4N0HPA-37" value="" style="endArrow=none;dashed=1;html=1;strokeWidth=2;rounded=0;strokeColor=#919191;" edge="1" parent="1">
          <mxGeometry width="50" height="50" relative="1" as="geometry">
            <mxPoint x="750" y="440" as="sourcePoint" />
            <mxPoint x="749.56" y="340" as="targetPoint" />
          </mxGeometry>
        </mxCell>
        <mxCell id="qSneyJeQMX9DcK4N0HPA-38" value="" style="endArrow=none;dashed=1;html=1;strokeWidth=2;rounded=0;strokeColor=#919191;" edge="1" parent="1">
          <mxGeometry width="50" height="50" relative="1" as="geometry">
            <mxPoint x="810" y="440" as="sourcePoint" />
            <mxPoint x="810" y="341" as="targetPoint" />
          </mxGeometry>
        </mxCell>
        <mxCell id="qSneyJeQMX9DcK4N0HPA-39" value="" style="shape=hexagon;perimeter=hexagonPerimeter2;whiteSpace=wrap;html=1;fixedSize=1;strokeWidth=3;" vertex="1" parent="1">
          <mxGeometry x="680" y="360" width="70" height="40" as="geometry" />
        </mxCell>
        <mxCell id="qSneyJeQMX9DcK4N0HPA-40" value="" style="endArrow=none;html=1;rounded=0;edgeStyle=orthogonalEdgeStyle;entryX=0;entryY=0.5;entryDx=0;entryDy=0;strokeWidth=3;" edge="1" parent="1">
          <mxGeometry width="50" height="50" relative="1" as="geometry">
            <mxPoint x="850" y="360" as="sourcePoint" />
            <mxPoint x="750" y="380" as="targetPoint" />
            <Array as="points">
              <mxPoint x="750" y="360" />
            </Array>
          </mxGeometry>
        </mxCell>
        <mxCell id="qSneyJeQMX9DcK4N0HPA-41" value="parity" style="edgeLabel;html=1;align=center;verticalAlign=middle;resizable=0;points=[];fontSize=18;" vertex="1" connectable="0" parent="1">
          <mxGeometry x="718" y="430.9999999999999" as="geometry">
            <mxPoint x="-4" y="-3" as="offset" />
          </mxGeometry>
        </mxCell>
        <mxCell id="qSneyJeQMX9DcK4N0HPA-42" value="stop" style="edgeLabel;html=1;align=center;verticalAlign=middle;resizable=0;points=[];fontSize=18;" vertex="1" connectable="0" parent="1">
          <mxGeometry x="784" y="430.9999999999999" as="geometry">
            <mxPoint x="-4" y="-3" as="offset" />
          </mxGeometry>
        </mxCell>
      </root>
    </mxGraphModel>
  </diagram>
</mxfile>
